<svg width="58" height="68" viewBox="0 0 58 68" fill="none" xmlns="http://www.w3.org/2000/svg">
<path d="M42.9726 19.2379V66.8649M42.9726 19.2379H46.3905M42.9726 19.2379H24.5098M42.9726 66.8649H1V19.2379H24.5098M42.9726 66.8649H49.8083M49.8083 66.8649H56.6441V19.2379H49.8083M49.8083 66.8649V34.1087M49.8083 29.5537V19.2379M49.8083 19.2379H46.3905M46.3905 19.2379C47.8279 12.4053 47.0102 -0.643585 32.2399 1.8215M24.5098 19.2379C24.1904 17.0943 24.0115 11.7087 25.8514 7.31442M32.2399 22.5872C33.2195 16.7147 33.3132 4.34012 25.8514 1.8215C16.5241 -1.32678 8.794 4.36703 10.8383 22.5872" stroke="#010101" stroke-width="1.70339"/>
</svg>
